
<svg width="29px" height="29px" viewBox="16 19 29 29" version="1.1" xmlns="http://www.w3.org/2000/svg" xmlns:xlink="http://www.w3.org/1999/xlink">
    <!-- Generator: Sketch 41.2 (35397) - http://www.bohemiancoding.com/sketch -->
    <desc>Created with Sketch.</desc>
    <defs></defs>
    <g id="Group-3" stroke="none" stroke-width="1" fill="none" fill-rule="evenodd" transform="translate(30.000000, 33.000000) rotate(-315.000000) translate(-30.000000, -33.000000) translate(21.000000, 24.000000)">
        <path d="M3.41,16 L16,3.41 L16,7 L18,7 L18,1.77635684e-14 L11,1.77635684e-14 L11,2 L14.59,2 L2,14.59 L2,11 L7.10542736e-15,11 L7.10542736e-15,16.5 L1.0658141e-14,18 L7,18 L7,16 L3.41,16 Z" id="Combined-Shape" fill="#F57C23" transform="translate(9.000000, 9.000000) rotate(-360.000000) translate(-9.000000, -9.000000) "></path>
        <path d="M3.41,16 L16,3.41 L16,7 L18,7 L18,0 L11,0 L11,2 L14.59,2 L2,14.59 L2,11 L2.13162821e-14,11 L2.13162821e-14,16.5 L2.13162821e-14,18 L7,18 L7,16 L3.41,16 Z" id="Combined-Shape" fill="#F57C23" transform="translate(9.000000, 9.000000) rotate(-90.000000) translate(-9.000000, -9.000000) "></path>
    </g>
</svg>